<?xml version="1.0" encoding="UTF-8"?>
<!DOCTYPE svg PUBLIC "-//W3C//DTD SVG 1.1//EN" "http://www.w3.org/Graphics/SVG/1.1/DTD/svg11.dtd">
<svg xmlns="http://www.w3.org/2000/svg" version="1.1" width="500px" height="500px" style="shape-rendering:geometricPrecision; text-rendering:geometricPrecision; image-rendering:optimizeQuality; fill-rule:evenodd; clip-rule:evenodd" xmlns:xlink="http://www.w3.org/1999/xlink">
<g><path style="opacity:1" fill="#f9f9f9" d="M -0.5,-0.5 C 166.167,-0.5 332.833,-0.5 499.5,-0.5C 499.5,166.167 499.5,332.833 499.5,499.5C 332.833,499.5 166.167,499.5 -0.5,499.5C -0.5,332.833 -0.5,166.167 -0.5,-0.5 Z"/></g>
<g><path style="opacity:1" fill="#bbc1ce" d="M 221.5,220.5 C 217.081,228.341 212.415,236.008 207.5,243.5C 179.103,197.714 149.936,152.38 120,107.5C 108.94,100.866 99.2731,102.533 91,112.5C 88.6,118.236 89.2667,123.569 93,128.5C 122.333,173.833 151.667,219.167 181,264.5C 183.061,268.012 185.561,271.012 188.5,273.5C 184.068,280.709 179.402,287.709 174.5,294.5C 141.011,242.862 107.511,191.195 74,139.5C 61.228,110.537 70.0614,91.3706 100.5,82C 116.729,79.5182 129.896,84.6848 140,97.5C 166.333,138.167 192.667,178.833 219,219.5C 219.671,220.252 220.504,220.586 221.5,220.5 Z"/></g>
<g><path style="opacity:1" fill="#bbc1ce" d="M 324.5,203.5 C 319.672,197.183 315.338,190.516 311.5,183.5C 324.171,163.316 336.671,142.983 349,122.5C 349.667,119.833 349.667,117.167 349,114.5C 344.001,105.751 336.501,101.917 326.5,103C 323.241,104.211 320.408,106.044 318,108.5C 305.572,127.693 293.406,147.026 281.5,166.5C 267.334,165.752 255.667,170.752 246.5,181.5C 264.144,152.22 282.311,123.22 301,94.5C 312.651,81.7321 326.818,77.8988 343.5,83C 371.218,95.1535 378.051,114.653 364,141.5C 350.61,162.05 337.443,182.717 324.5,203.5 Z"/></g>
<g><path style="opacity:1" fill="#f9f9f9" d="M 207.5,243.5 C 201.167,253.5 194.833,263.5 188.5,273.5C 185.561,271.012 183.061,268.012 181,264.5C 151.667,219.167 122.333,173.833 93,128.5C 89.2667,123.569 88.6,118.236 91,112.5C 99.2731,102.533 108.94,100.866 120,107.5C 149.936,152.38 179.103,197.714 207.5,243.5 Z"/></g>
<g><path style="opacity:1" fill="#f9f9f9" d="M 311.5,183.5 C 303.951,173.72 293.951,168.053 281.5,166.5C 293.406,147.026 305.572,127.693 318,108.5C 320.408,106.044 323.241,104.211 326.5,103C 336.501,101.917 344.001,105.751 349,114.5C 349.667,117.167 349.667,119.833 349,122.5C 336.671,142.983 324.171,163.316 311.5,183.5 Z"/></g>
<g><path style="opacity:1" fill="#455877" d="M 281.5,166.5 C 293.951,168.053 303.951,173.72 311.5,183.5C 315.338,190.516 319.672,197.183 324.5,203.5C 356.48,254.117 388.98,304.45 422,354.5C 431.389,367.882 433.056,382.216 427,397.5C 414.117,415.462 396.951,421.295 375.5,415C 367.445,411.611 361.278,406.111 357,398.5C 331.069,358.292 304.902,318.292 278.5,278.5C 251.333,320.833 224.167,363.167 197,405.5C 185.055,417.431 170.888,420.931 154.5,416C 130.593,405.023 123.093,387.19 132,362.5C 146.439,339.945 160.605,317.279 174.5,294.5C 179.402,287.709 184.068,280.709 188.5,273.5C 194.833,263.5 201.167,253.5 207.5,243.5C 212.415,236.008 217.081,228.341 221.5,220.5C 230.579,208.017 238.912,195.017 246.5,181.5C 255.667,170.752 267.334,165.752 281.5,166.5 Z"/></g>
<g><path style="opacity:1" fill="#f7f7f8" d="M 297.5,203.5 C 290.833,214.833 284.167,226.167 277.5,237.5C 263.887,259.773 249.887,281.773 235.5,303.5C 226.958,312.018 217.792,312.685 208,305.5C 205.306,302.108 203.14,298.441 201.5,294.5C 220.505,264.651 239.338,234.651 258,204.5C 261.118,199.714 264.618,195.214 268.5,191C 282.157,185.827 291.823,189.994 297.5,203.5 Z"/></g>
<g><path style="opacity:1" fill="#bac0cd" d="M 297.5,203.5 C 302.222,210.23 306.555,217.23 310.5,224.5C 304.167,235.167 297.833,245.833 291.5,256.5C 287.863,251.342 284.363,246.009 281,240.5C 280.241,238.937 279.074,237.937 277.5,237.5C 284.167,226.167 290.833,214.833 297.5,203.5 Z"/></g>
<g><path style="opacity:1" fill="#f8f8f9" d="M 310.5,224.5 C 342.558,272.931 374.392,321.597 406,370.5C 412.175,382.304 409.008,390.471 396.5,395C 389.436,396.745 383.269,395.245 378,390.5C 348.907,345.975 320.074,301.308 291.5,256.5C 297.833,245.833 304.167,235.167 310.5,224.5 Z"/></g>
<g><path style="opacity:1" fill="#bac0cd" d="M 201.5,294.5 C 203.14,298.441 205.306,302.108 208,305.5C 217.792,312.685 226.958,312.018 235.5,303.5C 229.747,313.342 223.747,323.009 217.5,332.5C 205.156,331.169 195.49,325.503 188.5,315.5C 192.445,308.23 196.778,301.23 201.5,294.5 Z"/></g>
<g><path style="opacity:1" fill="#f8f8f8" d="M 188.5,315.5 C 195.49,325.503 205.156,331.169 217.5,332.5C 205.594,351.974 193.428,371.307 181,390.5C 168.752,399.661 158.418,397.661 150,384.5C 149.333,381.5 149.333,378.5 150,375.5C 162.608,355.266 175.442,335.266 188.5,315.5 Z"/></g>
</svg>
