<svg id="svg" version="1.1" width="400" height="400" viewBox="0 0 400 400" xmlns="http://www.w3.org/2000/svg" xmlns:xlink="http://www.w3.org/1999/xlink"><g id="svgg"><path id="path0" d="M215.200 134.560 C 211.466 135.547,208.645 136.866,205.029 139.318 C 200.608 142.317,198.737 144.570,192.511 154.400 C 191.187 156.490,188.845 160.180,187.305 162.600 C 185.766 165.020,183.020 169.340,181.204 172.200 C 179.388 175.060,176.816 179.110,175.489 181.200 C 174.161 183.290,171.958 186.717,170.591 188.816 C 169.225 190.915,167.790 193.255,167.402 194.016 C 167.014 194.777,165.481 197.290,163.994 199.600 C 162.507 201.910,159.356 206.860,156.992 210.600 C 154.628 214.340,151.390 219.380,149.795 221.800 C 144.856 229.298,141.658 234.327,140.961 235.691 C 140.352 236.881,138.153 240.381,131.591 250.600 C 130.319 252.580,125.640 259.960,121.193 267.000 C 116.745 274.040,111.888 281.690,110.399 284.000 C 104.379 293.337,103.050 297.120,103.090 304.800 C 103.226 330.746,137.249 344.549,155.851 326.206 C 159.334 322.771,159.770 322.139,171.982 302.800 C 176.219 296.090,180.723 288.980,181.991 287.000 C 186.793 279.499,190.070 274.338,195.196 266.200 C 198.106 261.580,201.525 256.180,202.795 254.200 C 207.541 246.796,211.162 241.082,216.800 232.096 C 222.052 223.725,223.565 221.717,223.896 222.677 C 223.957 222.855,228.510 229.930,234.014 238.400 C 239.518 246.870,245.885 256.680,248.164 260.200 C 250.442 263.720,254.637 270.200,257.485 274.600 C 261.841 281.330,266.845 289.052,278.610 307.200 C 290.706 325.858,292.201 327.611,298.840 330.920 C 324.911 343.913,354.263 318.096,342.409 292.600 C 341.590 290.840,338.706 285.980,335.999 281.800 C 333.291 277.620,329.334 271.500,327.206 268.200 C 325.077 264.900,321.633 259.590,319.552 256.400 C 315.725 250.532,311.146 243.467,302.441 230.000 C 299.811 225.930,295.956 219.990,293.875 216.800 C 290.433 211.522,287.265 206.632,274.454 186.823 C 272.114 183.206,268.540 177.716,266.512 174.623 C 264.483 171.530,261.612 167.020,260.131 164.600 C 256.545 158.740,249.943 148.784,247.767 145.957 C 240.283 136.232,226.772 131.504,215.200 134.560 M229.317 152.299 C 232.395 153.969,234.644 156.552,238.600 162.957 C 240.580 166.164,245.444 173.695,249.410 179.694 C 253.375 185.692,257.716 192.310,259.056 194.400 C 261.491 198.196,267.488 207.459,276.797 221.800 C 284.945 234.355,291.103 243.858,295.198 250.200 C 297.329 253.500,301.471 259.890,304.402 264.400 C 329.800 303.478,328.035 300.493,328.047 304.367 C 328.068 311.121,321.571 317.066,313.688 317.506 C 307.406 317.856,303.900 315.363,298.354 306.600 C 296.684 303.960,292.922 298.110,289.994 293.600 C 287.067 289.090,282.928 282.700,280.796 279.400 C 276.429 272.639,270.463 263.417,263.198 252.200 C 260.491 248.020,256.532 241.900,254.400 238.600 C 252.268 235.300,248.308 229.180,245.600 225.000 C 236.676 211.225,232.800 205.160,232.800 204.968 C 232.800 204.864,231.216 202.399,229.279 199.489 C 227.342 196.580,225.265 193.345,224.662 192.300 C 223.341 190.009,223.120 189.976,221.965 191.900 C 221.133 193.287,219.088 196.526,213.188 205.800 C 211.928 207.780,209.414 211.740,207.600 214.600 C 205.786 217.460,203.244 221.465,201.951 223.500 C 200.658 225.535,198.520 228.910,197.200 231.000 C 193.510 236.843,190.424 241.706,186.792 247.400 C 184.968 250.260,182.395 254.310,181.073 256.400 C 179.752 258.490,178.099 261.100,177.399 262.200 C 176.700 263.300,175.257 265.640,174.194 267.400 C 172.419 270.337,160.013 289.997,153.623 300.000 C 152.147 302.310,149.873 305.889,148.570 307.954 C 142.510 317.554,136.468 319.938,128.378 315.921 C 118.714 311.123,117.420 304.577,124.085 294.200 C 125.074 292.660,129.527 285.640,133.981 278.600 C 144.427 262.089,146.636 258.644,158.662 240.104 C 159.838 238.291,160.800 236.709,160.800 236.588 C 160.800 236.360,171.807 218.924,182.003 203.000 C 183.270 201.020,185.561 197.420,187.093 195.000 C 212.397 155.030,211.916 155.765,213.778 154.243 C 218.271 150.572,224.661 149.773,229.317 152.299 " stroke="none" fill="#f1f1e9" fill-rule="evenodd"></path><path id="path1" d="M0.000 200.000 L 0.000 400.000 200.000 400.000 L 400.000 400.000 400.000 200.000 L 400.000 0.000 200.000 0.000 L 0.000 0.000 0.000 200.000 M94.000 66.061 C 99.754 67.388,104.387 70.053,108.894 74.627 C 111.486 77.257,114.595 81.762,126.334 99.900 C 128.790 103.695,132.780 109.860,135.200 113.600 C 141.416 123.206,147.469 132.547,153.345 141.600 C 156.130 145.890,160.505 152.640,163.068 156.600 C 173.132 172.152,176.518 177.174,176.815 176.991 C 177.115 176.805,179.934 172.417,191.715 153.800 C 194.778 148.960,198.495 143.110,199.976 140.800 C 201.456 138.490,203.986 134.530,205.597 132.000 C 207.208 129.470,209.668 125.646,211.063 123.503 C 212.458 121.360,213.600 119.521,213.600 119.417 C 213.600 119.313,214.794 117.376,216.254 115.114 C 217.714 112.851,219.994 109.290,221.320 107.200 C 227.142 98.022,229.487 94.354,231.863 90.703 C 233.258 88.560,234.400 86.710,234.400 86.593 C 234.400 86.043,241.693 75.627,243.008 74.299 C 255.365 61.814,275.767 62.231,288.768 75.232 C 299.570 86.034,300.337 99.634,290.977 114.400 C 288.230 118.733,280.110 131.498,275.200 139.200 C 273.587 141.730,271.009 145.780,269.471 148.200 C 267.932 150.620,265.532 154.354,264.137 156.497 C 262.742 158.640,261.600 160.502,261.600 160.635 C 261.600 160.768,261.264 161.354,260.853 161.938 C 259.902 163.290,259.772 163.009,265.200 171.354 C 273.332 183.858,278.487 191.801,283.400 199.393 C 286.040 203.474,290.360 210.136,293.000 214.198 C 295.640 218.260,299.780 224.647,302.200 228.391 C 304.620 232.135,308.760 238.526,311.400 242.593 C 314.040 246.660,318.360 253.326,321.000 257.407 C 323.640 261.487,327.780 267.875,330.200 271.602 C 332.620 275.330,336.151 280.769,338.046 283.690 C 344.706 293.955,345.204 295.421,345.186 304.709 C 345.152 322.218,331.762 334.875,313.200 334.946 C 299.469 334.998,292.844 330.540,282.279 314.139 C 280.034 310.652,276.937 305.859,275.398 303.486 C 269.019 293.650,263.545 285.204,259.400 278.800 C 256.980 275.062,253.020 268.947,250.600 265.213 C 248.180 261.479,243.860 254.813,241.000 250.399 C 238.140 245.986,233.904 239.456,231.587 235.887 C 229.270 232.319,226.570 228.102,225.587 226.516 C 223.463 223.089,223.339 223.056,221.821 225.501 C 221.173 226.545,219.890 228.570,218.971 230.000 C 218.051 231.430,213.029 239.350,207.810 247.600 C 202.591 255.850,197.907 263.230,197.403 264.000 C 196.898 264.770,192.218 272.150,187.003 280.400 C 181.787 288.650,177.109 296.030,176.606 296.800 C 176.103 297.570,172.265 303.600,168.078 310.201 C 158.224 325.733,155.536 328.809,149.000 332.028 C 126.836 342.946,99.688 324.971,102.401 301.175 C 103.143 294.670,104.299 292.235,113.403 278.000 C 115.021 275.470,117.020 272.320,117.844 271.000 C 118.669 269.680,120.098 267.430,121.020 266.000 C 130.326 251.566,139.600 236.646,139.600 236.110 C 139.600 235.427,138.947 234.369,130.526 221.400 C 127.812 217.220,123.495 210.560,120.932 206.600 C 114.947 197.351,109.011 188.193,102.655 178.400 C 99.870 174.110,95.495 167.360,92.932 163.400 C 80.273 143.838,70.431 128.681,65.435 121.054 C 55.585 106.017,55.198 105.049,55.206 95.491 C 55.210 90.291,55.365 88.158,55.836 86.800 C 60.945 72.083,78.574 62.504,94.000 66.061 M262.200 82.980 C 257.642 84.142,256.003 85.498,252.392 91.097 C 251.008 93.244,248.733 96.754,247.338 98.897 C 245.942 101.040,244.800 102.887,244.800 103.001 C 244.800 103.115,243.839 104.691,242.664 106.504 C 241.489 108.317,239.269 111.780,237.730 114.200 C 232.679 122.144,229.099 127.757,227.364 130.452 L 225.657 133.105 227.668 133.371 C 234.228 134.242,241.114 137.924,246.226 143.295 L 249.552 146.791 250.376 145.634 C 250.829 144.997,251.200 144.368,251.200 144.234 C 251.200 144.101,252.161 142.509,253.336 140.696 C 254.511 138.883,256.731 135.420,258.270 133.000 C 259.809 130.580,262.387 126.530,264.000 124.000 C 265.613 121.470,268.191 117.420,269.730 115.000 C 271.269 112.580,273.518 109.073,274.729 107.207 C 278.964 100.676,280.294 97.407,279.902 94.486 C 279.267 89.747,274.412 84.668,269.342 83.436 C 265.571 82.519,264.319 82.439,262.200 82.980 M85.000 83.051 C 79.838 83.729,74.899 87.197,72.953 91.511 C 71.113 95.589,71.746 98.315,76.087 105.000 C 84.261 117.590,89.261 125.299,93.468 131.800 C 99.453 141.049,105.389 150.207,111.745 160.000 C 114.530 164.290,118.905 171.040,121.468 175.000 C 128.555 185.952,134.161 194.598,139.752 203.200 C 142.541 207.490,146.007 212.845,147.455 215.100 C 150.603 220.000,150.227 219.929,152.692 216.100 C 157.761 208.228,166.106 194.990,166.271 194.558 C 166.373 194.294,164.942 191.766,163.093 188.939 C 161.243 186.113,157.720 180.695,155.265 176.900 C 152.809 173.105,148.820 166.940,146.400 163.200 C 143.980 159.460,139.990 153.295,137.534 149.500 C 135.077 145.705,131.117 139.585,128.734 135.900 C 126.350 132.215,122.390 126.095,119.934 122.300 C 117.477 118.505,113.547 112.430,111.200 108.800 C 94.419 82.844,93.493 81.935,85.000 83.051 M217.364 152.782 C 214.088 154.420,212.306 156.434,207.793 163.600 C 203.282 170.762,201.461 173.636,197.400 180.000 C 195.786 182.530,193.666 185.860,192.689 187.400 C 188.757 193.597,171.768 220.389,170.044 223.111 C 169.030 224.712,167.478 227.142,166.595 228.511 C 165.712 229.880,164.205 232.244,163.247 233.765 L 161.505 236.531 162.208 237.765 C 165.837 244.138,168.016 246.214,173.319 248.349 C 176.359 249.574,181.097 248.839,184.400 246.632 C 187.563 244.518,186.547 246.026,213.800 203.000 C 217.284 197.500,220.939 191.740,221.924 190.200 C 225.905 183.972,229.478 178.371,232.131 174.200 C 233.670 171.780,235.710 168.587,236.664 167.105 C 238.798 163.791,238.840 164.340,236.157 160.342 C 230.513 151.932,224.168 149.380,217.364 152.782 M247.440 182.903 C 245.262 186.387,240.690 193.556,238.067 197.600 C 236.854 199.470,235.345 201.876,234.713 202.947 L 233.565 204.895 235.159 207.547 C 236.036 209.006,238.429 212.763,240.477 215.894 C 242.525 219.026,246.180 224.655,248.600 228.402 C 251.020 232.149,254.262 237.147,255.803 239.507 C 257.345 241.868,260.495 246.730,262.803 250.312 C 265.112 253.894,269.009 259.924,271.464 263.712 C 273.920 267.500,277.846 273.570,280.188 277.200 C 282.531 280.830,286.491 286.950,288.988 290.800 C 291.486 294.650,295.480 300.841,297.864 304.558 C 304.677 315.178,306.438 316.597,312.800 316.599 C 321.273 316.601,328.274 310.350,327.463 303.506 C 327.179 301.102,325.906 298.734,320.158 289.913 C 317.761 286.234,313.460 279.614,310.600 275.201 C 307.740 270.787,303.420 264.121,301.000 260.387 C 298.580 256.653,294.620 250.537,292.200 246.797 C 289.780 243.057,285.460 236.398,282.600 231.999 C 279.740 227.600,275.420 220.934,273.000 217.186 C 263.509 202.486,249.130 180.399,249.055 180.403 C 249.025 180.405,248.298 181.530,247.440 182.903 M145.400 261.904 C 138.052 273.503,136.830 275.427,133.468 280.680 C 123.571 296.144,121.277 300.010,120.786 302.060 C 117.980 313.757,136.816 322.197,144.490 312.681 C 145.236 311.757,148.696 306.500,152.180 301.000 C 155.664 295.500,159.344 289.691,160.357 288.091 C 161.371 286.491,163.031 283.881,164.046 282.291 C 166.365 278.661,173.367 267.560,173.735 266.930 C 173.922 266.610,173.271 266.305,171.705 265.977 C 164.327 264.431,158.923 261.470,153.754 256.141 L 150.909 253.207 145.400 261.904 " stroke="none" fill="#1c1c14" fill-rule="evenodd"></path><path id="path2" d="M84.800 65.483 C 72.219 66.109,59.862 75.204,55.836 86.800 C 55.365 88.158,55.210 90.291,55.206 95.491 C 55.198 105.049,55.585 106.017,65.435 121.054 C 70.431 128.681,80.273 143.838,92.932 163.400 C 95.495 167.360,99.870 174.110,102.655 178.400 C 109.011 188.193,114.947 197.351,120.932 206.600 C 123.495 210.560,127.812 217.220,130.526 221.400 C 140.827 237.264,140.197 236.014,138.866 237.938 C 137.856 239.398,137.522 240.000,137.723 240.000 C 138.029 240.000,139.878 237.016,140.198 236.005 C 140.370 235.464,141.088 234.116,141.794 233.010 C 142.500 231.905,144.438 228.840,146.101 226.200 C 147.764 223.560,149.572 220.913,150.119 220.318 C 151.209 219.131,152.984 216.400,152.665 216.400 C 152.555 216.400,152.076 217.030,151.600 217.800 C 150.415 219.717,150.425 219.723,147.455 215.100 C 146.007 212.845,142.541 207.490,139.752 203.200 C 134.161 194.598,128.555 185.952,121.468 175.000 C 118.905 171.040,114.530 164.290,111.745 160.000 C 105.389 150.207,99.453 141.049,93.468 131.800 C 89.261 125.299,84.261 117.590,76.087 105.000 C 70.665 96.650,70.657 92.431,76.054 87.360 C 79.400 84.216,82.381 83.064,87.144 83.075 C 94.555 83.092,94.561 83.098,111.134 108.700 C 116.820 117.485,123.216 127.370,128.734 135.900 C 131.117 139.585,135.107 145.750,137.600 149.600 C 140.093 153.450,144.053 159.570,146.400 163.200 C 164.538 191.254,166.796 194.675,166.798 194.094 C 166.799 193.815,167.402 192.645,168.139 191.494 C 168.875 190.342,170.843 187.240,172.513 184.600 C 174.182 181.960,176.061 179.080,176.688 178.200 C 177.315 177.320,180.505 172.370,183.778 167.200 C 199.570 142.251,199.580 142.238,204.884 138.717 C 208.783 136.128,210.130 135.407,212.469 134.655 C 216.825 133.256,218.106 133.088,223.119 133.260 C 225.914 133.355,227.621 133.370,226.913 133.293 L 225.626 133.151 227.349 130.476 C 228.956 127.979,230.225 125.989,237.664 114.300 C 239.239 111.825,241.489 108.317,242.664 106.504 C 243.839 104.691,244.800 103.115,244.800 103.001 C 244.800 102.887,245.942 101.040,247.338 98.897 C 248.733 96.754,251.008 93.244,252.392 91.097 C 256.047 85.431,257.996 83.867,262.637 82.873 C 269.813 81.337,278.964 87.493,279.902 94.486 C 280.294 97.407,278.964 100.676,274.729 107.207 C 273.518 109.073,271.239 112.625,269.664 115.100 C 268.089 117.575,265.540 121.580,264.000 124.000 C 262.460 126.420,259.911 130.425,258.336 132.900 C 256.761 135.375,254.511 138.883,253.336 140.696 C 252.161 142.509,251.200 144.101,251.200 144.234 C 251.200 144.368,250.838 144.985,250.396 145.606 L 249.591 146.735 245.696 142.867 C 243.553 140.740,241.215 138.674,240.500 138.277 C 238.535 137.186,238.942 137.751,241.133 139.157 C 242.807 140.231,244.874 142.243,249.601 147.400 C 250.206 148.060,251.510 149.860,252.499 151.400 C 253.488 152.940,255.470 156.021,256.904 158.247 C 258.339 160.473,259.647 162.717,259.811 163.234 C 260.112 164.182,263.577 169.600,263.882 169.600 C 264.090 169.600,263.817 169.136,261.999 166.400 C 260.050 163.466,259.957 163.114,260.833 161.975 C 261.245 161.439,261.586 160.864,261.591 160.697 C 261.596 160.530,262.742 158.640,264.137 156.497 C 265.532 154.354,267.932 150.620,269.471 148.200 C 271.009 145.780,273.587 141.730,275.200 139.200 C 280.110 131.498,288.230 118.733,290.977 114.400 C 293.262 110.795,294.961 107.428,295.922 104.600 C 306.009 74.915,265.410 51.666,243.008 74.299 C 241.693 75.627,234.400 86.043,234.400 86.593 C 234.400 86.710,233.258 88.560,231.863 90.703 C 229.487 94.354,227.142 98.022,221.320 107.200 C 219.994 109.290,217.714 112.851,216.254 115.114 C 214.794 117.376,213.600 119.313,213.600 119.417 C 213.600 119.521,212.458 121.360,211.063 123.503 C 209.668 125.646,207.208 129.470,205.597 132.000 C 203.986 134.530,201.456 138.490,199.976 140.800 C 198.495 143.110,194.778 148.960,191.715 153.800 C 179.934 172.417,177.115 176.805,176.815 176.991 C 176.518 177.174,173.132 172.152,163.068 156.600 C 160.505 152.640,156.130 145.890,153.345 141.600 C 147.469 132.547,141.416 123.206,135.200 113.600 C 132.780 109.860,128.790 103.695,126.334 99.900 C 114.595 81.762,111.486 77.257,108.894 74.627 C 102.112 67.744,94.836 64.982,84.800 65.483 M229.400 134.000 C 229.840 134.189,230.560 134.338,231.000 134.332 C 231.643 134.323,231.604 134.257,230.800 134.000 C 229.432 133.562,228.381 133.562,229.400 134.000 M234.433 135.352 C 234.841 135.724,238.800 137.593,238.800 137.413 C 238.800 137.188,234.980 135.200,234.547 135.200 C 234.393 135.200,234.342 135.268,234.433 135.352 M219.319 151.518 C 219.054 151.686,220.134 151.765,221.719 151.694 C 226.047 151.498,226.589 151.315,223.000 151.261 C 221.240 151.234,219.583 151.350,219.319 151.518 M215.978 153.135 C 213.933 154.441,211.163 157.339,210.224 159.154 C 209.277 160.985,209.763 160.671,210.929 158.700 C 212.199 156.552,214.483 154.347,216.800 153.032 C 217.790 152.469,218.410 152.007,218.178 152.005 C 217.946 152.002,216.956 152.511,215.978 153.135 M227.633 152.149 C 228.045 152.517,230.400 153.600,230.400 153.421 C 230.400 153.190,228.182 152.000,227.753 152.000 C 227.596 152.000,227.542 152.067,227.633 152.149 M232.412 155.417 C 233.395 156.526,234.613 157.966,235.118 158.617 C 235.622 159.268,235.504 158.990,234.856 158.000 C 234.207 157.010,232.989 155.570,232.150 154.800 C 230.736 153.504,230.756 153.549,232.412 155.417 M206.322 165.300 C 204.897 167.450,203.698 169.577,204.137 169.175 C 204.346 168.984,206.789 165.276,207.744 163.700 C 208.620 162.255,207.518 163.494,206.322 165.300 M236.637 167.117 C 235.558 168.813,233.443 172.135,231.937 174.500 C 228.866 179.324,224.612 185.994,221.924 190.200 C 220.939 191.740,217.284 197.500,213.800 203.000 C 186.547 246.026,187.563 244.518,184.400 246.632 C 181.097 248.839,176.359 249.574,173.319 248.349 C 167.932 246.180,166.491 244.803,162.072 237.600 C 161.600 236.830,161.210 236.407,161.207 236.659 C 161.199 237.189,158.725 241.341,155.999 245.400 C 154.964 246.940,153.818 248.783,153.451 249.495 C 153.085 250.207,152.222 251.430,151.534 252.214 C 150.846 252.998,150.457 253.585,150.669 253.520 C 150.882 253.454,152.303 254.676,153.828 256.235 C 158.967 261.491,164.385 264.443,171.705 265.977 C 172.973 266.242,173.907 266.626,173.782 266.830 C 173.656 267.033,173.651 267.200,173.771 267.200 C 173.891 267.200,174.269 266.525,174.612 265.700 C 174.954 264.875,176.461 262.310,177.961 260.000 C 183.931 250.808,192.670 237.177,200.271 225.200 C 204.669 218.270,211.550 207.425,215.563 201.100 C 219.575 194.775,223.024 189.600,223.227 189.600 C 223.681 189.600,233.200 204.030,233.200 204.719 C 233.200 204.899,233.480 205.396,233.822 205.824 C 234.422 206.573,234.429 206.569,234.020 205.722 C 233.549 204.749,233.946 203.952,238.067 197.600 C 239.280 195.730,241.532 192.220,243.072 189.800 C 244.611 187.380,246.594 184.264,247.478 182.875 L 249.084 180.349 250.384 182.375 C 251.099 183.489,251.769 184.400,251.874 184.400 C 252.254 184.400,250.223 181.363,248.762 179.746 C 247.940 178.836,246.955 177.486,246.573 176.746 C 246.191 176.006,244.314 173.060,242.403 170.200 C 240.491 167.340,238.854 164.783,238.764 164.517 C 238.674 164.251,237.717 165.421,236.637 167.117 M200.722 174.100 C 199.115 176.524,198.294 178.000,198.552 178.000 C 198.650 178.000,199.313 177.055,200.023 175.900 C 200.733 174.745,201.579 173.395,201.903 172.900 C 202.227 172.405,202.407 172.000,202.303 172.000 C 202.198 172.000,201.487 172.945,200.722 174.100 M267.687 175.700 C 268.005 176.195,269.213 178.085,270.371 179.900 C 271.529 181.715,272.570 183.200,272.685 183.200 C 272.799 183.200,272.609 182.768,272.263 182.240 C 271.917 181.712,270.708 179.822,269.577 178.040 C 268.446 176.258,267.427 174.800,267.314 174.800 C 267.201 174.800,267.368 175.205,267.687 175.700 M194.907 183.300 C 192.796 186.674,192.725 186.800,192.942 186.800 C 193.046 186.800,193.713 185.855,194.423 184.700 C 195.133 183.545,195.979 182.195,196.303 181.700 C 196.627 181.205,196.797 180.800,196.682 180.800 C 196.566 180.800,195.768 181.925,194.907 183.300 M189.853 191.191 C 188.853 192.702,188.415 193.796,189.136 192.980 C 189.692 192.352,191.279 189.600,191.086 189.600 C 190.987 189.600,190.432 190.316,189.853 191.191 M255.421 190.000 C 255.977 190.987,260.453 197.784,260.690 198.000 C 261.502 198.742,256.403 190.707,255.487 189.800 C 255.215 189.531,255.194 189.597,255.421 190.000 M278.008 191.600 C 278.659 192.863,282.374 198.466,282.913 199.000 C 283.495 199.576,283.008 198.760,280.285 194.600 C 277.793 190.793,277.162 189.960,278.008 191.600 M165.624 195.718 C 165.323 196.203,164.815 197.005,164.493 197.500 C 164.171 197.995,163.995 198.400,164.101 198.400 C 164.383 198.400,166.486 195.153,166.315 194.981 C 166.235 194.902,165.924 195.233,165.624 195.718 M185.522 198.100 C 184.097 200.250,182.898 202.377,183.337 201.975 C 183.546 201.784,185.989 198.076,186.944 196.500 C 187.820 195.055,186.718 196.294,185.522 198.100 M160.937 203.100 C 160.286 204.145,159.428 205.495,159.031 206.100 C 158.633 206.705,158.393 207.200,158.497 207.200 C 158.705 207.200,161.184 203.538,161.949 202.100 C 162.796 200.509,162.157 201.140,160.937 203.100 M286.813 205.200 C 287.475 206.497,291.184 212.081,291.728 212.600 C 292.188 213.039,291.842 212.456,288.999 208.000 C 286.978 204.833,285.957 203.525,286.813 205.200 M179.922 206.900 C 178.497 209.050,177.298 211.177,177.737 210.775 C 177.946 210.584,180.389 206.876,181.344 205.300 C 182.220 203.855,181.118 205.094,179.922 206.900 M265.856 206.100 C 267.991 209.623,270.182 212.712,269.189 210.800 C 268.472 209.419,265.924 205.600,265.720 205.600 C 265.628 205.600,265.689 205.825,265.856 206.100 M234.811 207.600 C 235.528 208.981,238.076 212.800,238.280 212.800 C 238.473 212.800,238.364 212.612,236.312 209.425 C 234.627 206.807,234.010 206.057,234.811 207.600 M155.970 210.866 C 155.698 211.380,155.213 212.205,154.892 212.700 C 154.571 213.195,154.395 213.600,154.501 213.600 C 154.836 213.600,156.869 210.336,156.662 210.129 C 156.554 210.020,156.242 210.352,155.970 210.866 M174.322 215.700 C 172.897 217.850,171.698 219.977,172.137 219.575 C 172.346 219.384,174.789 215.676,175.744 214.100 C 176.620 212.655,175.518 213.894,174.322 215.700 M295.412 218.400 C 296.232 219.892,302.101 228.800,302.264 228.800 C 302.365 228.800,302.310 228.575,302.142 228.300 C 299.429 223.861,294.128 216.061,295.412 218.400 M274.937 220.160 C 275.283 220.688,276.492 222.578,277.623 224.360 C 278.754 226.142,279.763 227.600,279.864 227.600 C 280.098 227.600,279.948 227.344,277.094 222.900 C 275.787 220.865,274.626 219.200,274.513 219.200 C 274.400 219.200,274.591 219.632,274.937 220.160 M243.611 221.200 C 244.328 222.581,246.876 226.400,247.080 226.400 C 247.273 226.400,247.164 226.212,245.112 223.025 C 243.427 220.407,242.810 219.657,243.611 221.200 M168.722 224.500 C 167.115 226.924,166.294 228.400,166.552 228.400 C 166.650 228.400,167.313 227.455,168.023 226.300 C 168.733 225.145,169.579 223.795,169.903 223.300 C 170.227 222.805,170.407 222.400,170.303 222.400 C 170.198 222.400,169.487 223.345,168.722 224.500 M221.522 225.300 C 219.918 227.720,219.094 229.200,219.350 229.200 C 219.448 229.200,220.302 227.946,221.248 226.413 C 222.194 224.880,223.245 223.551,223.584 223.460 C 224.115 223.316,224.111 223.286,223.557 223.246 C 223.194 223.220,222.305 224.117,221.522 225.300 M224.537 224.960 C 224.883 225.488,226.092 227.378,227.223 229.160 C 228.354 230.942,229.373 232.400,229.486 232.400 C 229.599 232.400,229.432 231.995,229.113 231.500 C 228.795 231.005,227.587 229.115,226.429 227.300 C 225.271 225.485,224.230 224.000,224.115 224.000 C 224.001 224.000,224.191 224.432,224.537 224.960 M163.517 232.700 C 162.285 234.569,161.517 236.000,161.746 236.000 C 161.842 236.000,162.275 235.399,162.708 234.665 C 163.141 233.931,163.810 232.851,164.194 232.265 C 164.578 231.679,164.805 231.200,164.699 231.200 C 164.593 231.200,164.061 231.875,163.517 232.700 M216.317 233.500 C 215.773 234.325,215.114 235.450,214.853 236.000 L 214.377 237.000 215.088 236.034 C 216.107 234.652,217.676 232.000,217.476 232.000 C 217.383 232.000,216.861 232.675,216.317 233.500 M283.421 233.200 C 283.977 234.187,288.453 240.984,288.690 241.200 C 289.502 241.942,284.403 233.907,283.487 233.000 C 283.215 232.731,283.194 232.797,283.421 233.200 M252.408 234.800 C 253.059 236.063,256.774 241.666,257.313 242.200 C 257.895 242.776,257.408 241.960,254.685 237.800 C 252.193 233.993,251.562 233.160,252.408 234.800 M306.008 234.800 C 306.659 236.063,310.374 241.666,310.913 242.200 C 311.495 242.776,311.008 241.960,308.285 237.800 C 305.793 233.993,305.162 233.160,306.008 234.800 M233.337 238.560 C 233.683 239.088,234.892 240.978,236.023 242.760 C 237.154 244.542,238.163 246.000,238.264 246.000 C 238.498 246.000,238.348 245.744,235.494 241.300 C 234.187 239.265,233.026 237.600,232.913 237.600 C 232.800 237.600,232.991 238.032,233.337 238.560 M211.922 240.500 C 210.497 242.650,209.298 244.777,209.737 244.375 C 209.946 244.184,212.389 240.476,213.344 238.900 C 214.220 237.455,213.118 238.694,211.922 240.500 M134.537 244.700 C 133.886 245.745,133.028 247.095,132.631 247.700 C 132.233 248.305,131.993 248.800,132.097 248.800 C 132.305 248.800,134.784 245.138,135.549 243.700 C 136.396 242.109,135.757 242.740,134.537 244.700 M206.322 249.300 C 204.897 251.450,203.698 253.577,204.137 253.175 C 204.346 252.984,206.789 249.276,207.744 247.700 C 208.620 246.255,207.518 247.494,206.322 249.300 M261.208 248.400 C 261.859 249.663,265.574 255.266,266.113 255.800 C 266.695 256.376,266.208 255.560,263.485 251.400 C 260.993 247.593,260.362 246.760,261.208 248.400 M314.813 248.400 C 315.475 249.697,319.184 255.281,319.728 255.800 C 320.188 256.239,319.842 255.656,316.999 251.200 C 314.978 248.033,313.957 246.725,314.813 248.400 M293.856 249.300 C 295.991 252.823,298.182 255.912,297.189 254.000 C 296.472 252.619,293.924 248.800,293.720 248.800 C 293.628 248.800,293.689 249.025,293.856 249.300 M241.821 251.600 C 242.377 252.587,246.853 259.384,247.090 259.600 C 247.902 260.342,242.803 252.307,241.887 251.400 C 241.615 251.131,241.594 251.197,241.821 251.600 M128.937 253.500 C 128.286 254.545,127.428 255.895,127.031 256.500 C 126.633 257.105,126.393 257.600,126.497 257.600 C 126.705 257.600,129.184 253.938,129.949 252.500 C 130.796 250.909,130.157 251.540,128.937 253.500 M147.922 257.300 C 146.497 259.450,145.298 261.577,145.737 261.175 C 145.946 260.984,148.389 257.276,149.344 255.700 C 150.220 254.255,149.118 255.494,147.922 257.300 M200.722 258.100 C 199.115 260.524,198.294 262.000,198.552 262.000 C 198.650 262.000,199.313 261.055,200.023 259.900 C 200.733 258.745,201.579 257.395,201.903 256.900 C 202.227 256.405,202.407 256.000,202.303 256.000 C 202.198 256.000,201.487 256.945,200.722 258.100 M123.970 261.266 C 123.698 261.780,123.213 262.605,122.892 263.100 C 122.571 263.595,122.395 264.000,122.501 264.000 C 122.836 264.000,124.869 260.736,124.662 260.529 C 124.554 260.420,124.242 260.752,123.970 261.266 M270.008 262.000 C 270.659 263.263,274.374 268.866,274.913 269.400 C 275.495 269.976,275.008 269.160,272.285 265.000 C 269.793 261.193,269.162 260.360,270.008 262.000 M323.687 262.100 C 324.005 262.595,325.213 264.485,326.371 266.300 C 327.529 268.115,328.570 269.600,328.685 269.600 C 328.799 269.600,328.609 269.168,328.263 268.640 C 327.917 268.112,326.708 266.222,325.577 264.440 C 324.446 262.658,323.427 261.200,323.314 261.200 C 323.201 261.200,323.368 261.605,323.687 262.100 M302.937 263.360 C 303.283 263.888,304.492 265.778,305.623 267.560 C 306.754 269.342,307.763 270.800,307.864 270.800 C 308.098 270.800,307.948 270.544,305.094 266.100 C 303.787 264.065,302.626 262.400,302.513 262.400 C 302.400 262.400,302.591 262.832,302.937 263.360 M142.322 266.100 C 140.897 268.250,139.698 270.377,140.137 269.975 C 140.346 269.784,142.789 266.076,143.744 264.500 C 144.620 263.055,143.518 264.294,142.322 266.100 M195.517 266.300 C 194.973 267.125,194.314 268.250,194.053 268.800 L 193.577 269.800 194.288 268.834 C 195.307 267.452,196.876 264.800,196.676 264.800 C 196.583 264.800,196.061 265.475,195.517 266.300 M250.621 265.200 C 251.177 266.187,255.653 272.984,255.890 273.200 C 256.702 273.942,251.603 265.907,250.687 265.000 C 250.415 264.731,250.394 264.797,250.621 265.200 M119.177 268.900 C 118.467 270.055,117.621 271.405,117.297 271.900 C 116.973 272.395,116.803 272.800,116.918 272.800 C 117.034 272.800,117.832 271.675,118.693 270.300 C 120.804 266.926,120.875 266.800,120.658 266.800 C 120.554 266.800,119.887 267.745,119.177 268.900 M172.137 269.500 C 171.486 270.545,170.628 271.895,170.231 272.500 C 169.833 273.105,169.593 273.600,169.697 273.600 C 169.905 273.600,172.384 269.938,173.149 268.500 C 173.996 266.909,173.357 267.540,172.137 269.500 M191.122 273.300 C 189.697 275.450,188.498 277.577,188.937 277.175 C 189.146 276.984,191.589 273.276,192.544 271.700 C 193.420 270.255,192.318 271.494,191.122 273.300 M136.722 274.900 C 135.115 277.324,134.294 278.800,134.552 278.800 C 134.650 278.800,135.313 277.855,136.023 276.700 C 136.733 275.545,137.579 274.195,137.903 273.700 C 138.227 273.205,138.407 272.800,138.303 272.800 C 138.198 272.800,137.487 273.745,136.722 274.900 M278.808 275.600 C 279.459 276.863,283.174 282.466,283.713 283.000 C 284.295 283.576,283.808 282.760,281.085 278.600 C 278.593 274.793,277.962 273.960,278.808 275.600 M113.577 277.700 C 112.867 278.855,112.021 280.205,111.697 280.700 C 111.373 281.195,111.193 281.600,111.297 281.600 C 111.505 281.600,113.984 277.938,114.749 276.500 C 115.657 274.794,114.866 275.605,113.577 277.700 M311.421 276.400 C 311.977 277.387,316.453 284.184,316.690 284.400 C 317.502 285.142,312.403 277.107,311.487 276.200 C 311.215 275.931,311.194 275.997,311.421 276.400 M167.170 277.266 C 166.898 277.780,166.413 278.605,166.092 279.100 C 165.771 279.595,165.595 280.000,165.701 280.000 C 166.036 280.000,168.069 276.736,167.862 276.529 C 167.754 276.420,167.442 276.752,167.170 277.266 M334.008 278.000 C 334.659 279.263,338.374 284.866,338.913 285.400 C 339.495 285.976,339.008 285.160,336.285 281.000 C 333.793 277.193,333.162 276.360,334.008 278.000 M185.522 282.100 C 184.097 284.250,182.898 286.377,183.337 285.975 C 183.546 285.784,185.989 282.076,186.944 280.500 C 187.820 279.055,186.718 280.294,185.522 282.100 M261.337 281.760 C 261.683 282.288,262.892 284.178,264.023 285.960 C 265.154 287.742,266.173 289.200,266.286 289.200 C 266.399 289.200,266.232 288.795,265.913 288.300 C 265.595 287.805,264.387 285.915,263.229 284.100 C 262.071 282.285,261.030 280.800,260.915 280.800 C 260.801 280.800,260.991 281.232,261.337 281.760 M130.907 284.100 C 128.796 287.474,128.725 287.600,128.942 287.600 C 129.046 287.600,129.713 286.655,130.423 285.500 C 131.133 284.345,131.979 282.995,132.303 282.500 C 132.627 282.005,132.797 281.600,132.682 281.600 C 132.566 281.600,131.768 282.725,130.907 284.100 M162.377 284.900 C 161.667 286.055,160.821 287.405,160.497 287.900 C 160.173 288.395,160.003 288.800,160.118 288.800 C 160.234 288.800,161.032 287.675,161.893 286.300 C 164.004 282.926,164.075 282.800,163.858 282.800 C 163.754 282.800,163.087 283.745,162.377 284.900 M108.492 285.735 C 108.059 286.469,107.389 287.594,107.005 288.235 L 106.305 289.400 107.133 288.400 C 108.079 287.257,109.744 284.400,109.465 284.400 C 109.363 284.400,108.925 285.001,108.492 285.735 M287.608 289.200 C 288.259 290.463,291.974 296.066,292.513 296.600 C 293.095 297.176,292.608 296.360,289.885 292.200 C 287.393 288.393,286.762 287.560,287.608 289.200 M340.809 288.700 C 340.814 288.865,341.185 289.450,341.633 290.000 L 342.448 291.000 341.814 289.700 C 341.211 288.465,340.789 288.045,340.809 288.700 M179.922 290.900 C 178.315 293.324,177.494 294.800,177.752 294.800 C 177.850 294.800,178.513 293.855,179.223 292.700 C 179.933 291.545,180.779 290.195,181.103 289.700 C 181.427 289.205,181.607 288.800,181.503 288.800 C 181.398 288.800,180.687 289.745,179.922 290.900 M105.586 290.701 C 104.745 292.387,104.740 292.400,104.947 292.400 C 105.205 292.400,106.442 289.908,106.269 289.736 C 106.195 289.662,105.888 290.096,105.586 290.701 M320.221 290.000 C 320.777 290.987,325.253 297.784,325.490 298.000 C 326.302 298.742,321.203 290.707,320.287 289.800 C 320.015 289.531,319.994 289.597,320.221 290.000 M125.853 291.991 C 124.853 293.502,124.415 294.596,125.136 293.780 C 125.692 293.152,127.279 290.400,127.086 290.400 C 126.987 290.400,126.432 291.116,125.853 291.991 M156.937 293.500 C 156.286 294.545,155.428 295.895,155.031 296.500 C 154.633 297.105,154.393 297.600,154.497 297.600 C 154.705 297.600,157.184 293.938,157.949 292.500 C 158.796 290.909,158.157 291.540,156.937 293.500 M270.137 295.360 C 270.483 295.888,271.692 297.778,272.823 299.560 C 273.954 301.342,274.963 302.800,275.064 302.800 C 275.298 302.800,275.148 302.544,272.294 298.100 C 270.987 296.065,269.826 294.400,269.713 294.400 C 269.600 294.400,269.791 294.832,270.137 295.360 M122.214 297.835 C 121.841 298.404,121.605 298.938,121.689 299.022 C 121.773 299.107,122.158 298.641,122.544 297.988 C 123.406 296.528,123.148 296.409,122.214 297.835 M102.618 299.018 C 102.465 300.039,102.422 300.955,102.522 301.055 C 102.622 301.155,102.829 300.402,102.982 299.382 C 103.135 298.361,103.178 297.445,103.078 297.345 C 102.978 297.245,102.771 297.998,102.618 299.018 M344.967 304.600 C 344.967 308.780,345.026 310.436,345.098 308.279 C 345.171 306.123,345.170 302.703,345.098 300.679 C 345.025 298.656,344.966 300.420,344.967 304.600 M174.107 300.100 C 171.997 303.471,171.925 303.600,172.141 303.600 C 172.244 303.600,173.032 302.475,173.893 301.100 C 176.003 297.729,176.075 297.600,175.859 297.600 C 175.756 297.600,174.968 298.725,174.107 300.100 M326.278 299.795 C 326.644 300.562,327.014 301.119,327.101 301.032 C 327.284 300.849,326.070 298.400,325.796 298.400 C 325.695 298.400,325.912 299.028,326.278 299.795 M151.337 302.300 C 150.686 303.345,149.828 304.695,149.431 305.300 C 149.033 305.905,148.793 306.400,148.897 306.400 C 149.105 306.400,151.584 302.738,152.349 301.300 C 153.196 299.709,152.557 300.340,151.337 302.300 M120.252 302.500 C 119.940 303.664,119.981 306.010,120.328 306.885 C 120.478 307.262,120.600 306.227,120.600 304.585 C 120.600 301.269,120.593 301.227,120.252 302.500 M327.398 304.370 C 327.399 305.882,327.532 306.913,327.694 306.660 C 328.057 306.092,328.041 303.246,327.670 302.310 C 327.519 301.930,327.397 302.857,327.398 304.370 M296.408 302.800 C 297.059 304.063,300.774 309.666,301.313 310.200 C 301.895 310.776,301.408 309.960,298.685 305.800 C 296.193 301.993,295.562 301.160,296.408 302.800 M102.101 304.600 C 102.105 305.480,102.187 305.793,102.283 305.295 C 102.379 304.798,102.375 304.078,102.275 303.695 C 102.175 303.313,102.096 303.720,102.101 304.600 M170.322 306.100 C 168.897 308.250,167.698 310.377,168.137 309.975 C 168.346 309.784,170.789 306.076,171.744 304.500 C 172.620 303.055,171.518 304.294,170.322 306.100 M102.672 309.800 C 102.799 310.900,102.969 311.875,103.051 311.967 C 103.332 312.282,103.120 309.799,102.780 308.800 C 102.551 308.126,102.516 308.451,102.672 309.800 M120.800 308.144 C 120.800 309.073,124.423 313.371,125.800 314.074 C 126.240 314.299,125.916 313.904,125.080 313.196 C 124.244 312.488,122.939 310.986,122.180 309.860 C 121.421 308.733,120.800 307.960,120.800 308.144 M146.474 309.941 C 145.241 311.945,142.803 314.619,141.400 315.506 C 140.960 315.784,141.174 315.740,141.876 315.408 C 143.178 314.792,146.374 311.184,147.434 309.134 C 148.370 307.324,147.778 307.822,146.474 309.941 M278.870 308.800 C 280.769 311.878,283.367 315.853,283.706 316.200 C 284.401 316.909,283.130 314.681,281.084 311.600 C 279.177 308.729,277.582 306.712,278.870 308.800 M302.337 311.872 C 303.861 314.080,307.892 316.841,309.480 316.766 C 309.970 316.742,309.879 316.634,309.197 316.426 C 307.164 315.808,305.422 314.662,303.465 312.656 C 302.160 311.319,301.765 311.045,302.337 311.872 M323.523 312.609 C 322.491 313.594,321.779 314.400,321.940 314.400 C 322.101 314.400,323.028 313.590,324.000 312.600 C 326.277 310.280,325.958 310.286,323.523 312.609 M343.637 314.692 C 342.281 318.246,339.746 321.870,336.007 325.598 C 334.133 327.467,333.161 328.596,333.848 328.108 C 337.945 325.193,345.899 313.766,344.680 312.547 C 344.591 312.457,344.121 313.422,343.637 314.692 M164.722 314.900 C 163.297 317.050,162.098 319.177,162.537 318.775 C 162.746 318.584,165.189 314.876,166.144 313.300 C 167.020 311.855,165.918 313.094,164.722 314.900 M126.800 314.596 C 126.800 314.870,129.249 316.084,129.432 315.901 C 129.519 315.814,128.962 315.444,128.195 315.078 C 127.428 314.712,126.800 314.495,126.800 314.596 M319.600 315.200 C 318.830 315.622,318.344 315.974,318.520 315.983 C 318.944 316.005,321.200 314.832,321.200 314.590 C 321.200 314.328,321.177 314.337,319.600 315.200 M130.400 316.382 C 130.730 316.605,131.345 316.791,131.767 316.794 C 132.790 316.802,132.471 316.573,131.000 316.244 C 130.124 316.048,129.962 316.085,130.400 316.382 M316.400 316.400 C 315.576 316.664,315.541 316.726,316.200 316.754 C 316.640 316.773,317.270 316.613,317.600 316.400 C 318.301 315.947,317.814 315.947,316.400 316.400 M133.891 317.089 C 134.601 317.177,135.861 317.179,136.691 317.092 C 137.521 317.005,136.940 316.933,135.400 316.931 C 133.860 316.929,133.181 317.000,133.891 317.089 M311.700 317.087 C 312.305 317.178,313.295 317.178,313.900 317.087 C 314.505 316.995,314.010 316.920,312.800 316.920 C 311.590 316.920,311.095 316.995,311.700 317.087 M105.200 317.351 C 105.200 318.617,110.937 325.530,113.790 327.701 C 114.675 328.375,114.008 327.593,112.307 325.963 C 110.606 324.333,108.311 321.663,107.207 320.029 C 106.103 318.395,105.200 317.189,105.200 317.351 M160.000 321.944 C 160.000 322.133,159.241 323.168,158.314 324.244 C 157.386 325.320,157.046 325.840,157.558 325.400 C 158.966 324.189,160.926 321.600,160.434 321.600 C 160.195 321.600,160.000 321.755,160.000 321.944 M288.322 323.100 C 288.977 323.925,289.931 324.960,290.442 325.400 C 290.954 325.840,290.614 325.320,289.686 324.244 C 288.759 323.168,288.000 322.133,288.000 321.944 C 288.000 321.755,287.805 321.600,287.566 321.600 C 287.328 321.600,287.668 322.275,288.322 323.100 M154.175 328.500 L 153.000 329.800 154.300 328.625 C 155.512 327.530,155.784 327.200,155.475 327.200 C 155.406 327.200,154.821 327.785,154.175 328.500 M292.996 327.963 C 293.754 328.831,295.200 329.814,295.200 329.462 C 295.200 329.370,294.525 328.790,293.700 328.174 C 292.472 327.255,292.344 327.217,292.996 327.963 M330.500 329.826 C 328.612 330.958,328.177 331.549,329.900 330.641 C 331.109 330.003,332.716 328.831,332.400 328.817 C 332.290 328.812,331.435 329.266,330.500 329.826 M118.000 330.598 C 118.000 330.867,122.049 332.884,122.229 332.705 C 122.311 332.623,121.393 332.073,120.189 331.482 C 118.985 330.892,118.000 330.494,118.000 330.598 M148.200 332.052 C 146.440 332.924,145.450 333.515,146.000 333.366 C 147.212 333.038,151.600 330.866,151.600 330.594 C 151.600 330.348,151.916 330.213,148.200 332.052 M299.200 332.000 C 299.970 332.422,300.780 332.766,301.000 332.766 C 301.220 332.766,300.770 332.422,300.000 332.000 C 299.230 331.578,298.420 331.234,298.200 331.234 C 297.980 331.234,298.430 331.578,299.200 332.000 M326.400 332.000 C 325.630 332.422,325.180 332.766,325.400 332.766 C 325.620 332.766,326.430 332.422,327.200 332.000 C 327.970 331.578,328.420 331.234,328.200 331.234 C 327.980 331.234,327.170 331.578,326.400 332.000 M125.800 334.000 C 126.240 334.189,126.870 334.344,127.200 334.344 C 127.578 334.344,127.504 334.217,127.000 334.000 C 126.560 333.811,125.930 333.656,125.600 333.656 C 125.222 333.656,125.296 333.783,125.800 334.000 M303.633 333.744 C 303.725 333.823,304.340 334.008,305.000 334.156 C 305.876 334.352,306.038 334.315,305.600 334.018 C 305.060 333.653,303.232 333.398,303.633 333.744 M320.200 334.000 C 319.181 334.438,320.232 334.438,321.600 334.000 C 322.404 333.743,322.443 333.677,321.800 333.668 C 321.360 333.662,320.640 333.811,320.200 334.000 M129.023 334.853 C 129.670 334.992,132.360 335.105,135.000 335.105 C 137.640 335.105,140.330 334.992,140.977 334.853 C 141.625 334.714,138.935 334.600,135.000 334.600 C 131.065 334.600,128.375 334.714,129.023 334.853 M308.400 334.870 C 309.390 335.019,311.460 335.141,313.000 335.141 C 314.540 335.141,316.610 335.019,317.600 334.870 C 318.649 334.713,316.729 334.600,313.000 334.600 C 309.271 334.600,307.351 334.713,308.400 334.870 " stroke="none" fill="#636363" fill-rule="evenodd"></path><path id="path3" d="M220.300 133.493 C 221.235 133.577,222.765 133.577,223.700 133.493 C 224.635 133.409,223.870 133.340,222.000 133.340 C 220.130 133.340,219.365 133.409,220.300 133.493 M216.200 133.810 C 215.980 133.891,215.017 134.158,214.060 134.405 C 213.102 134.651,212.397 134.931,212.493 135.026 C 212.588 135.122,214.001 134.855,215.633 134.434 C 217.265 134.013,218.150 133.667,217.600 133.666 C 217.050 133.664,216.420 133.729,216.200 133.810 M226.433 133.747 C 226.525 133.828,227.320 134.004,228.200 134.138 C 229.315 134.307,229.558 134.271,229.000 134.019 C 228.232 133.671,226.090 133.444,226.433 133.747 M208.909 136.508 C 201.401 140.401,199.706 142.380,187.679 161.299 C 182.190 169.935,175.459 180.510,172.722 184.800 C 167.842 192.448,164.574 198.000,164.951 198.000 C 165.056 198.000,165.717 196.965,166.421 195.700 C 167.125 194.435,168.909 191.510,170.385 189.200 C 171.862 186.890,174.156 183.290,175.483 181.200 C 176.810 179.110,179.155 175.420,180.695 173.000 C 183.722 168.242,188.662 160.463,192.508 154.400 C 199.849 142.826,201.828 140.754,209.400 136.715 C 210.940 135.893,212.020 135.220,211.800 135.219 C 211.580 135.217,210.279 135.797,208.909 136.508 M238.400 137.779 C 238.400 137.889,238.940 138.259,239.600 138.600 C 240.260 138.941,240.800 139.131,240.800 139.021 C 240.800 138.911,240.260 138.541,239.600 138.200 C 238.940 137.859,238.400 137.669,238.400 137.779 M241.200 139.271 C 241.200 139.352,242.595 140.662,244.300 142.183 C 246.005 143.704,246.860 144.358,246.200 143.637 C 244.983 142.307,241.200 139.004,241.200 139.271 M248.739 147.200 C 249.620 148.410,252.290 152.395,254.671 156.057 C 257.052 159.718,259.220 163.048,259.489 163.457 C 259.952 164.162,259.964 164.159,259.718 163.400 C 259.272 162.027,250.352 148.512,248.703 146.712 L 247.136 145.000 248.739 147.200 M222.100 151.087 C 222.705 151.178,223.695 151.178,224.300 151.087 C 224.905 150.995,224.410 150.920,223.200 150.920 C 221.990 150.920,221.495 150.995,222.100 151.087 M215.744 152.769 C 215.053 153.190,214.365 153.733,214.216 153.974 C 213.992 154.337,216.575 152.758,217.156 152.177 C 217.547 151.787,216.933 152.044,215.744 152.769 M228.800 152.124 C 228.800 152.217,229.565 152.798,230.500 153.415 C 231.435 154.032,231.989 154.280,231.731 153.968 C 231.234 153.367,228.800 151.836,228.800 152.124 M212.521 155.302 C 212.073 155.796,211.398 156.740,211.022 157.400 C 210.344 158.591,210.345 158.592,211.070 157.600 C 211.471 157.050,212.216 156.176,212.724 155.658 C 213.233 155.139,213.578 154.645,213.492 154.559 C 213.407 154.473,212.970 154.807,212.521 155.302 M233.474 155.991 C 234.093 156.867,234.743 157.587,234.919 157.591 C 235.094 157.596,234.659 156.880,233.952 156.000 C 232.298 153.942,232.021 153.937,233.474 155.991 M235.939 159.300 C 236.385 160.015,237.330 161.590,238.039 162.800 C 240.552 167.093,249.003 180.000,249.301 180.000 C 249.467 180.000,247.912 177.435,245.846 174.300 C 243.780 171.165,240.613 166.215,238.808 163.300 C 237.004 160.385,235.437 158.000,235.327 158.000 C 235.217 158.000,235.492 158.585,235.939 159.300 M207.130 163.288 C 205.612 165.682,204.751 167.200,204.911 167.200 C 205.213 167.200,208.068 162.734,207.883 162.550 C 207.787 162.454,207.448 162.786,207.130 163.288 M260.248 164.900 C 262.277 168.336,265.431 172.835,264.383 170.800 C 263.686 169.445,260.324 164.400,260.118 164.400 C 260.027 164.400,260.086 164.625,260.248 164.900 M201.577 172.100 C 200.867 173.255,200.021 174.605,199.697 175.100 C 199.373 175.595,199.193 176.000,199.297 176.000 C 199.505 176.000,201.984 172.338,202.749 170.900 C 203.657 169.194,202.866 170.005,201.577 172.100 M196.137 180.700 C 195.486 181.745,194.628 183.095,194.231 183.700 C 193.833 184.305,193.593 184.800,193.697 184.800 C 193.905 184.800,196.384 181.138,197.149 179.700 C 197.996 178.109,197.357 178.740,196.137 180.700 M269.856 179.700 C 271.991 183.223,274.182 186.312,273.189 184.400 C 272.472 183.019,269.924 179.200,269.720 179.200 C 269.628 179.200,269.689 179.425,269.856 179.700 M190.892 188.935 C 190.459 189.669,189.789 190.794,189.405 191.435 L 188.705 192.600 189.533 191.600 C 190.479 190.457,192.144 187.600,191.865 187.600 C 191.763 187.600,191.325 188.201,190.892 188.935 M254.813 188.400 C 255.449 189.646,259.166 195.258,259.713 195.800 C 260.285 196.365,259.828 195.585,257.257 191.600 C 254.949 188.023,253.956 186.722,254.813 188.400 M220.190 194.073 C 217.444 198.353,192.992 236.850,190.446 240.900 C 189.651 242.165,185.760 248.280,181.800 254.490 C 177.840 260.699,174.537 266.054,174.461 266.390 C 174.330 266.962,175.655 264.958,181.198 256.200 C 182.451 254.220,184.968 250.260,186.792 247.400 C 190.424 241.706,193.510 236.843,197.200 231.000 C 198.520 228.910,200.658 225.535,201.951 223.500 C 203.244 221.465,205.786 217.460,207.600 214.600 C 209.414 211.740,211.928 207.780,213.188 205.800 C 219.088 196.526,221.133 193.287,221.965 191.900 C 223.120 189.976,223.341 190.009,224.662 192.300 C 225.265 193.345,227.342 196.580,229.279 199.489 C 231.216 202.399,232.800 204.953,232.800 205.166 C 232.800 205.379,232.963 205.654,233.163 205.777 C 234.073 206.340,232.795 204.070,228.465 197.432 C 225.893 193.489,223.575 190.192,223.313 190.104 C 223.052 190.017,221.646 191.803,220.190 194.073 M278.910 193.660 C 281.404 197.689,283.707 201.200,283.854 201.200 C 284.134 201.200,283.218 199.614,281.084 196.400 C 279.155 193.497,277.576 191.507,278.910 193.660 M185.552 197.300 C 185.290 197.795,184.815 198.650,184.496 199.200 C 183.939 200.159,183.943 200.167,184.588 199.400 C 185.386 198.452,186.505 196.400,186.224 196.400 C 186.116 196.400,185.814 196.805,185.552 197.300 M263.437 201.700 C 264.388 203.371,268.534 209.600,268.697 209.600 C 268.804 209.600,268.609 209.168,268.263 208.640 C 267.917 208.112,266.708 206.222,265.577 204.440 C 264.446 202.658,263.437 201.200,263.336 201.200 C 263.235 201.200,263.281 201.425,263.437 201.700 M160.708 204.100 C 159.833 205.449,159.048 207.056,159.487 206.600 C 160.048 206.017,161.698 203.200,161.479 203.200 C 161.376 203.200,161.029 203.605,160.708 204.100 M179.952 206.100 C 179.690 206.595,179.215 207.450,178.896 208.000 C 178.339 208.959,178.343 208.967,178.988 208.200 C 179.786 207.252,180.905 205.200,180.624 205.200 C 180.516 205.200,180.214 205.605,179.952 206.100 M287.416 206.800 C 288.074 207.985,292.144 214.208,292.517 214.600 C 293.216 215.334,291.900 213.035,289.884 210.000 C 288.009 207.178,286.639 205.401,287.416 206.800 M235.737 209.760 C 236.083 210.288,237.292 212.178,238.423 213.960 C 239.554 215.742,240.563 217.200,240.664 217.200 C 240.905 217.200,240.703 216.857,237.889 212.500 C 236.574 210.465,235.411 208.800,235.303 208.800 C 235.196 208.800,235.391 209.232,235.737 209.760 M155.517 212.300 C 154.285 214.169,153.517 215.600,153.746 215.600 C 153.842 215.600,154.275 214.999,154.708 214.265 C 155.141 213.531,155.810 212.451,156.194 211.865 C 156.578 211.279,156.805 210.800,156.699 210.800 C 156.593 210.800,156.061 211.475,155.517 212.300 M175.130 213.688 C 173.612 216.082,172.751 217.600,172.911 217.600 C 173.213 217.600,176.068 213.134,175.883 212.950 C 175.787 212.854,175.448 213.186,175.130 213.688 M274.011 218.000 C 274.726 219.376,278.079 224.400,278.282 224.400 C 278.482 224.400,278.365 224.205,275.892 220.404 C 273.802 217.194,273.176 216.393,274.011 218.000 M150.337 220.300 C 148.615 222.593,140.400 235.503,140.400 235.917 C 140.400 236.079,139.755 237.168,138.967 238.339 C 138.179 239.509,137.622 240.556,137.731 240.664 C 137.839 240.773,138.691 239.542,139.624 237.931 C 141.516 234.663,144.516 229.897,148.646 223.600 C 152.199 218.181,152.062 218.400,151.902 218.400 C 151.826 218.400,151.122 219.255,150.337 220.300 M169.577 222.500 C 168.867 223.655,168.021 225.005,167.697 225.500 C 167.373 225.995,167.193 226.400,167.297 226.400 C 167.505 226.400,169.984 222.738,170.749 221.300 C 171.657 219.594,170.866 220.405,169.577 222.500 M222.991 222.706 C 222.766 222.868,222.271 223.495,221.891 224.100 C 221.511 224.705,220.909 225.650,220.554 226.200 C 220.199 226.750,219.993 227.200,220.097 227.200 C 220.202 227.200,220.944 226.210,221.747 225.000 C 223.524 222.325,223.170 222.284,225.200 225.400 C 226.132 226.830,226.981 228.000,227.086 228.000 C 227.192 228.000,226.894 227.415,226.424 226.700 C 225.954 225.985,225.171 224.726,224.684 223.903 C 223.749 222.319,223.638 222.241,222.991 222.706 M244.537 223.360 C 244.883 223.888,246.092 225.778,247.223 227.560 C 248.354 229.342,249.363 230.800,249.464 230.800 C 249.705 230.800,249.503 230.457,246.689 226.100 C 245.374 224.065,244.211 222.400,244.103 222.400 C 243.996 222.400,244.191 222.832,244.537 223.360 M297.856 222.900 C 299.991 226.423,302.182 229.512,301.189 227.600 C 300.472 226.219,297.924 222.400,297.720 222.400 C 297.628 222.400,297.689 222.625,297.856 222.900 M164.137 231.100 C 163.486 232.145,162.628 233.495,162.231 234.100 C 161.833 234.705,161.593 235.200,161.697 235.200 C 161.905 235.200,164.384 231.538,165.149 230.100 C 165.996 228.509,165.357 229.140,164.137 231.100 M216.937 231.900 C 216.286 232.945,215.428 234.295,215.031 234.900 C 214.633 235.505,214.393 236.000,214.497 236.000 C 214.705 236.000,217.184 232.338,217.949 230.900 C 218.796 229.309,218.157 229.940,216.937 231.900 M282.848 231.700 C 283.529 232.988,287.230 238.525,287.728 239.000 C 288.182 239.433,287.892 238.947,284.777 234.040 C 282.830 230.974,281.808 229.734,282.848 231.700 M160.914 236.300 C 160.655 236.994,159.000 239.613,153.332 248.300 C 151.717 250.775,150.550 252.800,150.738 252.800 C 150.926 252.800,151.621 251.945,152.281 250.900 C 161.416 236.445,161.918 235.600,161.375 235.600 C 161.265 235.600,161.057 235.915,160.914 236.300 M232.408 236.400 C 233.059 237.663,236.774 243.266,237.313 243.800 C 237.895 244.376,237.408 243.560,234.685 239.400 C 232.193 235.593,231.562 234.760,232.408 236.400 M253.337 236.960 C 253.683 237.488,254.892 239.378,256.023 241.160 C 257.154 242.942,258.163 244.400,258.264 244.400 C 258.505 244.400,258.303 244.057,255.489 239.700 C 254.174 237.665,253.011 236.000,252.903 236.000 C 252.796 236.000,252.991 236.432,253.337 236.960 M306.910 236.860 C 309.404 240.889,311.707 244.400,311.854 244.400 C 312.134 244.400,311.218 242.814,309.084 239.600 C 307.155 236.697,305.576 234.707,306.910 236.860 M211.952 239.700 C 211.690 240.195,211.215 241.050,210.896 241.600 C 210.339 242.559,210.343 242.567,210.988 241.800 C 211.786 240.852,212.905 238.800,212.624 238.800 C 212.516 238.800,212.214 239.205,211.952 239.700 M291.437 244.900 C 292.388 246.571,296.534 252.800,296.697 252.800 C 296.804 252.800,296.609 252.368,296.263 251.840 C 295.917 251.312,294.708 249.422,293.577 247.640 C 292.446 245.858,291.437 244.400,291.336 244.400 C 291.235 244.400,291.281 244.625,291.437 244.900 M134.308 245.700 C 133.433 247.049,132.648 248.656,133.087 248.200 C 133.648 247.617,135.298 244.800,135.079 244.800 C 134.976 244.800,134.629 245.205,134.308 245.700 M206.352 248.500 C 206.090 248.995,205.615 249.850,205.296 250.400 C 204.739 251.359,204.743 251.367,205.388 250.600 C 206.186 249.652,207.305 247.600,207.024 247.600 C 206.916 247.600,206.614 248.005,206.352 248.500 M241.248 250.100 C 241.929 251.388,245.630 256.925,246.128 257.400 C 246.582 257.833,246.292 257.347,243.177 252.440 C 241.230 249.374,240.208 248.134,241.248 250.100 M262.137 250.560 C 262.483 251.088,263.692 252.978,264.823 254.760 C 265.954 256.542,266.963 258.000,267.064 258.000 C 267.305 258.000,267.103 257.657,264.289 253.300 C 262.974 251.265,261.811 249.600,261.703 249.600 C 261.596 249.600,261.791 250.032,262.137 250.560 M315.416 250.000 C 316.074 251.185,320.144 257.408,320.517 257.800 C 321.216 258.534,319.900 256.235,317.884 253.200 C 316.009 250.378,314.639 248.601,315.416 250.000 M128.708 254.500 C 127.833 255.849,127.048 257.456,127.487 257.000 C 128.048 256.417,129.698 253.600,129.479 253.600 C 129.376 253.600,129.029 254.005,128.708 254.500 M201.530 256.088 C 200.012 258.482,199.151 260.000,199.311 260.000 C 199.613 260.000,202.468 255.534,202.283 255.350 C 202.187 255.254,201.848 255.586,201.530 256.088 M147.952 256.500 C 147.690 256.995,147.215 257.850,146.896 258.400 C 146.339 259.359,146.343 259.367,146.988 258.600 C 147.786 257.652,148.905 255.600,148.624 255.600 C 148.516 255.600,148.214 256.005,147.952 256.500 M302.011 261.200 C 302.726 262.576,306.079 267.600,306.282 267.600 C 306.482 267.600,306.365 267.405,303.892 263.604 C 301.802 260.394,301.176 259.593,302.011 261.200 M123.517 262.700 C 122.285 264.569,121.517 266.000,121.746 266.000 C 121.842 266.000,122.275 265.399,122.708 264.665 C 123.141 263.931,123.810 262.851,124.194 262.265 C 124.578 261.679,124.805 261.200,124.699 261.200 C 124.593 261.200,124.061 261.875,123.517 262.700 M196.137 264.700 C 195.486 265.745,194.628 267.095,194.231 267.700 C 193.833 268.305,193.593 268.800,193.697 268.800 C 193.905 268.800,196.384 265.138,197.149 263.700 C 197.996 262.109,197.357 262.740,196.137 264.700 M250.048 263.700 C 250.729 264.988,254.430 270.525,254.928 271.000 C 255.382 271.433,255.092 270.947,251.977 266.040 C 250.030 262.974,249.008 261.734,250.048 263.700 M143.130 264.088 C 141.612 266.482,140.751 268.000,140.911 268.000 C 141.213 268.000,144.068 263.534,143.883 263.350 C 143.787 263.254,143.448 263.586,143.130 264.088 M270.937 264.160 C 271.283 264.688,272.492 266.578,273.623 268.360 C 274.754 270.142,275.763 271.600,275.864 271.600 C 276.105 271.600,275.903 271.257,273.089 266.900 C 271.774 264.865,270.611 263.200,270.503 263.200 C 270.396 263.200,270.591 263.632,270.937 264.160 M325.856 266.100 C 327.991 269.623,330.182 272.712,329.189 270.800 C 328.472 269.419,325.924 265.600,325.720 265.600 C 325.628 265.600,325.689 265.825,325.856 266.100 M118.322 270.900 C 116.897 273.050,115.698 275.177,116.137 274.775 C 116.346 274.584,118.789 270.876,119.744 269.300 C 120.620 267.855,119.518 269.094,118.322 270.900 M171.908 270.500 C 171.033 271.849,170.248 273.456,170.687 273.000 C 171.248 272.417,172.898 269.600,172.679 269.600 C 172.576 269.600,172.229 270.005,171.908 270.500 M137.577 272.900 C 136.867 274.055,136.021 275.405,135.697 275.900 C 135.373 276.395,135.193 276.800,135.297 276.800 C 135.505 276.800,137.984 273.138,138.749 271.700 C 139.657 269.994,138.866 270.805,137.577 272.900 M191.152 272.500 C 190.890 272.995,190.415 273.850,190.096 274.400 C 189.539 275.359,189.543 275.367,190.188 274.600 C 190.986 273.652,192.105 271.600,191.824 271.600 C 191.716 271.600,191.414 272.005,191.152 272.500 M310.848 274.900 C 311.529 276.188,315.230 281.725,315.728 282.200 C 316.182 282.633,315.892 282.147,312.777 277.240 C 310.830 274.174,309.808 272.934,310.848 274.900 M279.710 277.660 C 282.204 281.689,284.507 285.200,284.654 285.200 C 284.934 285.200,284.018 283.614,281.884 280.400 C 279.955 277.497,278.376 275.507,279.710 277.660 M166.717 278.700 C 165.485 280.569,164.717 282.000,164.946 282.000 C 165.042 282.000,165.475 281.399,165.908 280.665 C 166.341 279.931,167.010 278.851,167.394 278.265 C 167.778 277.679,168.005 277.200,167.899 277.200 C 167.793 277.200,167.261 277.875,166.717 278.700 M112.722 279.700 C 111.118 282.119,110.294 283.600,110.550 283.600 C 110.695 283.600,112.843 280.320,114.152 278.100 C 114.973 276.708,113.935 277.870,112.722 279.700 M260.411 279.600 C 261.128 280.981,263.676 284.800,263.880 284.800 C 264.073 284.800,263.964 284.612,261.912 281.425 C 260.227 278.807,259.610 278.057,260.411 279.600 M334.910 280.060 C 337.404 284.089,339.707 287.600,339.854 287.600 C 340.134 287.600,339.218 286.014,337.084 282.800 C 335.155 279.897,333.576 277.907,334.910 280.060 M132.137 281.500 C 131.486 282.545,130.628 283.895,130.231 284.500 C 129.833 285.105,129.593 285.600,129.697 285.600 C 129.905 285.600,132.384 281.938,133.149 280.500 C 133.996 278.909,133.357 279.540,132.137 281.500 M185.552 281.300 C 185.290 281.795,184.815 282.650,184.496 283.200 C 183.939 284.159,183.943 284.167,184.588 283.400 C 185.386 282.452,186.505 280.400,186.224 280.400 C 186.116 280.400,185.814 280.805,185.552 281.300 M161.522 286.900 C 160.097 289.050,158.898 291.177,159.337 290.775 C 159.546 290.584,161.989 286.876,162.944 285.300 C 163.820 283.855,162.718 285.094,161.522 286.900 M107.814 287.435 C 107.441 288.004,107.205 288.538,107.289 288.622 C 107.373 288.707,107.758 288.241,108.144 287.588 C 109.006 286.128,108.748 286.009,107.814 287.435 M319.437 288.100 C 320.388 289.771,324.534 296.000,324.697 296.000 C 324.804 296.000,324.609 295.568,324.263 295.040 C 323.917 294.512,322.708 292.622,321.577 290.840 C 320.446 289.058,319.437 287.600,319.336 287.600 C 319.235 287.600,319.281 287.825,319.437 288.100 M180.722 288.900 C 179.111 291.442,178.309 293.015,179.141 292.000 C 180.076 290.859,181.742 288.000,181.472 288.000 C 181.373 288.000,181.035 288.405,180.722 288.900 M126.892 289.735 C 126.459 290.469,125.789 291.594,125.405 292.235 L 124.705 293.400 125.533 292.400 C 126.479 291.257,128.144 288.400,127.865 288.400 C 127.763 288.400,127.325 289.001,126.892 289.735 M106.200 290.400 C 105.859 291.060,105.669 291.600,105.779 291.600 C 105.889 291.600,106.259 291.060,106.600 290.400 C 106.941 289.740,107.131 289.200,107.021 289.200 C 106.911 289.200,106.541 289.740,106.200 290.400 M288.510 291.260 C 291.004 295.289,293.307 298.800,293.454 298.800 C 293.734 298.800,292.818 297.214,290.684 294.000 C 288.755 291.097,287.176 289.107,288.510 291.260 M342.278 292.195 C 342.644 292.962,343.014 293.519,343.101 293.432 C 343.284 293.249,342.070 290.800,341.796 290.800 C 341.695 290.800,341.912 291.428,342.278 292.195 M269.208 293.200 C 269.859 294.463,273.574 300.066,274.113 300.600 C 274.695 301.176,274.208 300.360,271.485 296.200 C 268.993 292.393,268.362 291.560,269.208 293.200 M156.317 295.100 C 155.773 295.925,155.114 297.050,154.853 297.600 L 154.377 298.600 155.088 297.634 C 156.107 296.252,157.676 293.600,157.476 293.600 C 157.383 293.600,156.861 294.275,156.317 295.100 M175.337 297.500 C 174.686 298.545,173.828 299.895,173.431 300.500 C 173.033 301.105,172.793 301.600,172.897 301.600 C 173.105 301.600,175.584 297.938,176.349 296.500 C 177.196 294.909,176.557 295.540,175.337 297.500 M103.429 297.029 C 103.281 297.615,103.238 298.172,103.332 298.266 C 103.427 298.360,103.624 297.958,103.771 297.371 C 103.919 296.785,103.962 296.228,103.868 296.134 C 103.773 296.040,103.576 296.442,103.429 297.029 M344.244 297.400 C 344.573 298.871,344.802 299.190,344.794 298.167 C 344.791 297.745,344.605 297.130,344.382 296.800 C 344.085 296.362,344.048 296.524,344.244 297.400 M102.644 302.500 C 102.506 304.095,102.535 306.300,102.708 307.400 C 102.956 308.978,103.027 308.366,103.045 304.500 C 103.072 298.852,102.993 298.456,102.644 302.500 M327.212 300.800 C 327.212 301.130,327.387 301.670,327.600 302.000 C 327.945 302.533,327.988 302.533,327.988 302.000 C 327.988 301.670,327.813 301.130,327.600 300.800 C 327.255 300.267,327.212 300.267,327.212 300.800 M151.108 303.300 C 150.233 304.649,149.448 306.256,149.887 305.800 C 150.448 305.217,152.098 302.400,151.879 302.400 C 151.776 302.400,151.429 302.805,151.108 303.300 M297.050 304.500 C 299.038 307.848,302.651 312.893,303.852 314.000 L 305.372 315.400 303.771 313.600 C 302.890 312.610,301.033 310.045,299.644 307.900 C 298.254 305.755,297.036 304.000,296.935 304.000 C 296.835 304.000,296.886 304.225,297.050 304.500 M170.092 305.735 C 169.659 306.469,168.989 307.594,168.605 308.235 L 167.905 309.400 168.733 308.400 C 169.679 307.257,171.344 304.400,171.065 304.400 C 170.963 304.400,170.525 305.001,170.092 305.735 M278.013 306.800 C 278.649 308.046,282.366 313.658,282.913 314.200 C 283.485 314.765,283.028 313.985,280.457 310.000 C 278.149 306.423,277.156 305.122,278.013 306.800 M120.028 307.240 C 119.984 308.246,122.628 311.929,124.594 313.600 C 125.242 314.150,124.807 313.523,123.629 312.206 C 122.451 310.890,121.166 309.090,120.772 308.206 C 120.378 307.323,120.044 306.888,120.028 307.240 M324.200 312.474 C 323.018 313.688,322.640 314.244,323.275 313.834 C 324.160 313.263,326.728 310.375,326.320 310.410 C 326.254 310.416,325.300 311.345,324.200 312.474 M344.446 310.867 C 344.421 311.234,344.296 311.864,344.170 312.267 C 343.952 312.962,343.963 312.963,344.397 312.287 C 344.648 311.896,344.773 311.266,344.673 310.887 C 344.511 310.268,344.488 310.266,344.446 310.867 M143.400 314.278 C 142.300 315.294,141.760 315.932,142.200 315.695 C 142.962 315.286,145.953 312.383,145.578 312.416 C 145.480 312.425,144.500 313.263,143.400 314.278 M164.752 314.100 C 164.490 314.595,164.015 315.450,163.696 316.000 C 163.139 316.959,163.143 316.967,163.788 316.200 C 164.586 315.252,165.705 313.200,165.424 313.200 C 165.316 313.200,165.014 313.605,164.752 314.100 M126.000 314.579 C 126.000 314.689,126.540 315.059,127.200 315.400 C 127.860 315.741,128.400 315.931,128.400 315.821 C 128.400 315.711,127.860 315.341,127.200 315.000 C 126.540 314.659,126.000 314.469,126.000 314.579 M320.700 315.029 C 319.205 315.840,319.296 316.178,320.800 315.400 C 321.460 315.059,322.000 314.694,322.000 314.590 C 322.000 314.332,321.957 314.347,320.700 315.029 M131.600 317.200 C 132.150 317.376,133.050 317.517,133.600 317.513 C 134.498 317.506,134.478 317.474,133.400 317.200 C 131.708 316.769,130.256 316.769,131.600 317.200 M137.800 317.200 C 137.296 317.417,137.222 317.544,137.600 317.544 C 137.930 317.544,138.560 317.389,139.000 317.200 C 139.504 316.983,139.578 316.856,139.200 316.856 C 138.870 316.856,138.240 317.011,137.800 317.200 M309.517 317.272 C 310.378 317.615,315.094 317.606,316.325 317.260 C 316.834 317.117,315.357 317.000,313.042 317.000 C 310.728 317.000,309.142 317.122,309.517 317.272 M105.600 317.320 C 105.600 317.704,107.645 320.800,107.899 320.800 C 108.078 320.800,107.441 319.719,106.139 317.811 C 105.842 317.377,105.600 317.156,105.600 317.320 M340.988 319.122 C 340.335 320.155,339.264 321.630,338.610 322.400 C 337.768 323.390,337.694 323.565,338.358 323.000 C 339.382 322.128,342.563 317.629,342.324 317.391 C 342.243 317.310,341.642 318.089,340.988 319.122 M109.424 322.910 C 110.243 323.960,111.832 325.553,112.956 326.450 L 115.000 328.079 113.200 326.405 C 112.210 325.484,110.621 323.891,109.668 322.865 L 107.936 321.000 109.424 322.910 M155.200 326.897 C 153.550 328.473,152.740 329.379,153.400 328.912 C 154.578 328.079,158.748 323.984,158.385 324.017 C 158.283 324.026,156.850 325.322,155.200 326.897 M292.178 326.587 C 293.706 328.057,295.461 329.521,296.078 329.840 C 297.623 330.640,297.493 330.252,295.900 329.312 C 295.185 328.889,293.430 327.502,292.000 326.229 L 289.400 323.914 292.178 326.587 M335.200 326.043 L 333.000 328.077 335.099 326.402 C 336.956 324.920,337.896 323.991,337.524 324.004 C 337.456 324.007,336.410 324.924,335.200 326.043 M127.400 334.000 C 127.840 334.189,128.470 334.344,128.800 334.344 C 129.178 334.344,129.104 334.217,128.600 334.000 C 128.160 333.811,127.530 333.656,127.200 333.656 C 126.822 333.656,126.896 333.783,127.400 334.000 M141.600 334.000 C 140.776 334.264,140.741 334.326,141.400 334.354 C 141.840 334.373,142.470 334.213,142.800 334.000 C 143.501 333.547,143.014 333.547,141.600 334.000 M305.800 334.000 C 306.240 334.189,306.960 334.344,307.400 334.344 L 308.200 334.344 307.400 334.000 C 306.960 333.811,306.240 333.656,305.800 333.656 L 305.000 333.656 305.800 334.000 M318.600 334.000 C 318.096 334.217,318.022 334.344,318.400 334.344 C 318.730 334.344,319.360 334.189,319.800 334.000 C 320.304 333.783,320.378 333.656,320.000 333.656 C 319.670 333.656,319.040 333.811,318.600 334.000 M132.915 334.696 C 134.188 334.776,136.168 334.775,137.315 334.694 C 138.462 334.614,137.420 334.549,135.000 334.550 C 132.580 334.551,131.642 334.616,132.915 334.696 " stroke="none" fill="#8c8484" fill-rule="evenodd"></path><path id="path4" d="M210.400 135.400 C 209.094 136.147,209.551 136.155,211.254 135.416 C 211.994 135.094,212.330 134.831,212.000 134.830 C 211.670 134.829,210.950 135.086,210.400 135.400 M201.083 141.700 L 198.928 143.800 200.964 142.034 C 202.084 141.062,203.171 140.117,203.380 139.934 C 203.589 139.750,203.642 139.600,203.499 139.600 C 203.355 139.600,202.268 140.545,201.083 141.700 M252.209 151.426 C 252.581 152.101,253.241 153.091,253.676 153.626 L 254.467 154.600 253.791 153.374 C 253.419 152.699,252.759 151.709,252.324 151.174 L 251.533 150.200 252.209 151.426 M238.815 164.600 C 238.817 164.820,239.186 165.450,239.636 166.000 C 240.179 166.664,240.315 166.731,240.040 166.200 C 239.366 164.895,238.812 164.172,238.815 164.600 M247.077 177.631 C 247.475 178.308,248.056 179.073,248.368 179.331 C 248.680 179.589,248.432 179.035,247.815 178.100 C 246.520 176.137,246.009 175.812,247.077 177.631 M176.493 178.300 C 175.457 179.796,175.121 180.400,175.323 180.400 C 175.417 180.400,175.970 179.680,176.553 178.800 C 177.736 177.012,177.684 176.579,176.493 178.300 M171.446 186.200 C 171.091 186.750,170.509 187.695,170.153 188.300 L 169.505 189.400 170.310 188.426 C 171.260 187.276,172.521 185.200,172.269 185.200 C 172.171 185.200,171.801 185.650,171.446 186.200 M227.409 195.826 C 227.781 196.501,228.441 197.491,228.876 198.026 L 229.667 199.000 228.991 197.774 C 228.619 197.099,227.959 196.109,227.524 195.574 L 226.733 194.600 227.409 195.826 M149.923 220.300 C 149.218 221.121,148.690 222.000,148.901 222.000 C 148.983 222.000,149.449 221.460,149.937 220.800 C 150.901 219.496,150.892 219.172,149.923 220.300 M144.553 228.500 C 143.176 230.836,143.086 231.035,143.787 230.200 C 144.600 229.232,145.300 228.000,145.038 228.000 C 144.933 228.000,144.715 228.225,144.553 228.500 M158.553 240.900 C 157.176 243.236,157.086 243.435,157.787 242.600 C 158.600 241.632,159.300 240.400,159.038 240.400 C 158.933 240.400,158.715 240.625,158.553 240.900 M152.953 249.700 C 151.576 252.036,151.486 252.235,152.187 251.400 C 153.000 250.432,153.700 249.200,153.438 249.200 C 153.333 249.200,153.115 249.425,152.953 249.700 M182.153 253.300 C 180.776 255.636,180.686 255.835,181.387 255.000 C 182.200 254.032,182.900 252.800,182.638 252.800 C 182.533 252.800,182.315 253.025,182.153 253.300 M177.046 261.400 C 176.691 261.950,176.109 262.895,175.753 263.500 L 175.105 264.600 175.910 263.626 C 176.860 262.476,178.121 260.400,177.869 260.400 C 177.771 260.400,177.401 260.850,177.046 261.400 M135.105 317.483 C 135.602 317.579,136.322 317.575,136.705 317.475 C 137.087 317.375,136.680 317.296,135.800 317.301 C 134.920 317.305,134.607 317.387,135.105 317.483 M310.100 334.676 C 310.485 334.776,311.115 334.776,311.500 334.676 C 311.885 334.575,311.570 334.493,310.800 334.493 C 310.030 334.493,309.715 334.575,310.100 334.676 M314.305 334.683 C 314.802 334.779,315.522 334.775,315.905 334.675 C 316.287 334.575,315.880 334.496,315.000 334.501 C 314.120 334.505,313.807 334.587,314.305 334.683 " stroke="none" fill="#84847c" fill-rule="evenodd"></path></g></svg>